<svg width="32" height="33" viewBox="0 0 32 33" fill="none" xmlns="http://www.w3.org/2000/svg">
<path d="M16 2.66699C11 2.66699 7 6.66699 7 11.567C7 18.967 15 25.267 15.4 25.467C15.6 25.567 15.8 25.667 16 25.667C16.2 25.667 16.4 25.567 16.6 25.467C17 25.167 25 18.967 25 11.567C25 6.66699 21 2.66699 16 2.66699ZM16 14.667C14.3 14.667 13 13.367 13 11.667C13 9.96699 14.3 8.66699 16 8.66699C17.7 8.66699 19 9.96699 19 11.667C19 13.367 17.7 14.667 16 14.667Z" fill="#8D1739"/>
<path d="M29.9001 29.267L25.9001 21.267C25.7001 20.867 25.4001 20.667 25.0001 20.667H23.8001C21.4001 24.267 18.4001 26.667 17.8001 27.067C17.3001 27.467 16.7001 27.667 16.0001 27.667C15.3001 27.667 14.7001 27.467 14.2001 27.067C13.7001 26.667 10.6001 24.267 8.20009 20.667H7.00009C6.60009 20.667 6.30009 20.867 6.10009 21.267L2.10009 29.267C1.90009 29.567 2.00009 29.967 2.10009 30.267C2.20009 30.567 2.70009 30.667 3.00009 30.667H29.0001C29.3001 30.667 29.7001 30.467 29.9001 30.167C30.1001 29.867 30.0001 29.567 29.9001 29.267Z" fill="#8D1739"/>
</svg>
