<svg width="38" height="38" viewBox="0 0 38 38" fill="none" xmlns="http://www.w3.org/2000/svg">
<path d="M24.603 24.925C24.2167 24.7194 23.7801 24.6271 23.3437 24.6587C22.9072 24.6903 22.4885 24.8446 22.1359 25.1038L20.3585 26.4942C20.2395 26.5873 20.0975 26.6464 19.9476 26.6652C19.7977 26.684 19.6455 26.6617 19.5072 26.6008C19.115 26.4279 18.7216 26.2374 18.327 26.0294C16.6904 25.2088 15.1967 24.1298 13.9035 22.8339C12.4303 21.3647 11.173 19.694 10.1692 17.8716C9.96212 17.4776 9.77165 17.0842 9.5978 16.6914C9.53688 16.5531 9.51463 16.4009 9.53341 16.251C9.55218 16.1011 9.6113 15.9591 9.70444 15.8401L11.0948 14.0627C11.354 13.7101 11.5083 13.2914 11.5399 12.8549C11.5715 12.4185 11.4792 11.9819 11.2736 11.5956C11.2124 11.4806 8.05845 7.27006 7.97888 7.18558C7.74486 6.94037 7.45999 6.74938 7.14428 6.62602C6.82857 6.50266 6.48968 6.44992 6.15141 6.47151C5.81314 6.4931 5.4837 6.58849 5.18623 6.75098C4.88876 6.91348 4.63048 7.13913 4.42953 7.41209C4.42953 7.41209 2.25387 10.0897 2.25265 10.0909C-1.75584 14.8671 3.06806 20.7317 6.34685 24.2908C6.79127 24.7732 7.94094 25.9412 9.09916 27.0995C10.2574 28.2577 11.4254 29.4074 11.9078 29.8518C15.467 33.1306 21.3315 37.9545 26.1089 33.946C26.1089 33.9448 28.7865 31.7691 28.7865 31.7691C29.0596 31.5684 29.2854 31.3102 29.4479 31.0129C29.6105 30.7155 29.706 30.3861 29.7275 30.0479C29.7491 29.7097 29.6964 29.3708 29.5729 29.0552C29.4495 28.7396 29.2584 28.4548 29.013 28.221C28.9286 28.1401 24.718 24.9862 24.603 24.925Z" fill="#8D1739"/>
<path d="M30.6112 2.76471C28.5465 2.28138 26.3762 2.57368 24.5129 3.58602C22.6497 4.59836 21.2235 6.26013 20.5054 8.25536C20.3795 8.60733 17.4407 16.1374 16.4719 18.6189C16.443 18.693 16.4351 18.7736 16.4491 18.8518C16.4631 18.9301 16.4984 19.003 16.5512 19.0624C16.6039 19.1219 16.672 19.1656 16.7481 19.1889C16.8241 19.2121 16.9051 19.2138 16.982 19.194L22.9396 17.66C23.9257 18.5248 25.0959 19.1536 26.3614 19.4986C27.6268 19.8437 28.9542 19.8958 30.2428 19.6512C31.5314 19.4065 32.7474 18.8715 33.7983 18.0867C34.8493 17.302 35.7076 16.2881 36.3081 15.122C36.9087 13.956 37.2357 12.6684 37.2643 11.3571C37.2929 10.0458 37.0224 8.74517 36.4732 7.55404C35.9241 6.3629 35.1108 5.31254 34.095 4.48268C33.0793 3.65283 31.8879 3.0653 30.6112 2.76471Z" fill="#8D1739"/>
</svg>
