<svg width="83" height="82" viewBox="0 0 83 82" fill="none" xmlns="http://www.w3.org/2000/svg">
<path d="M23.151 44.3698C23.6348 44.7691 23.9425 45.3426 24.0076 45.9666C24.0727 46.5906 23.8902 47.2152 23.4992 47.7059L23.2858 47.9587L22.3085 49.0819C21.8905 49.5448 21.308 49.8257 20.6856 49.8645C20.0632 49.9034 19.4502 49.6971 18.978 49.2898L18.9387 49.2561L18.8825 49.2111C18.4003 48.8119 18.0937 48.2396 18.0286 47.6169C17.9635 46.9943 18.145 46.3709 18.5343 45.8806L19.4441 44.8135L19.725 44.4877C20.1447 44.0253 20.7285 43.7453 21.3519 43.7075C21.9752 43.6697 22.5886 43.8772 23.0611 44.2855L23.1004 44.3192L23.151 44.3698Z" fill="white" stroke="#8D1739" stroke-width="0.8" stroke-miterlimit="10" stroke-linecap="round"/>
<path d="M27.6442 47.7398C27.9458 48.0229 28.1862 48.3648 28.3505 48.7444C28.5148 49.1241 28.5996 49.5333 28.5996 49.947C28.5996 50.3607 28.5148 50.77 28.3505 51.1496C28.1862 51.5292 27.9458 51.8712 27.6442 52.1543L26.1558 53.9178C25.6672 54.4911 24.9743 54.8511 24.2243 54.9214C23.4744 54.9917 22.7266 54.7666 22.14 54.2941L22.0839 54.2492L22.0277 54.1987C21.4603 53.6976 21.1119 52.9941 21.0573 52.2392C21.0027 51.4842 21.2463 50.7379 21.7357 50.1604L23.2184 48.4193C23.2928 48.3099 23.3734 48.2049 23.4599 48.1048C23.9747 47.5145 24.6982 47.1467 25.4784 47.0786C26.2587 47.0105 27.035 47.2475 27.6442 47.7398Z" fill="white" stroke="#8D1739" stroke-width="0.8" stroke-miterlimit="10" stroke-linecap="round"/>
<path d="M32.1375 52.233C32.698 52.7016 33.0537 53.3703 33.1293 54.097C33.2048 54.8237 32.9941 55.5513 32.5419 56.1251L31.1603 57.7539C30.6691 58.2904 29.9889 58.6154 29.2629 58.6604C28.5369 58.7055 27.8218 58.4671 27.2681 57.9954L27.2175 57.9561L27.1557 57.8999C26.5961 57.4305 26.2414 56.7614 26.167 56.0347C26.0925 55.308 26.3042 54.581 26.757 54.0078L28.0207 52.5025L28.1442 52.3565C28.6364 51.8192 29.3181 51.4942 30.0454 51.4502C30.7727 51.4062 31.4887 51.6466 32.042 52.1206L32.0926 52.1599L32.1375 52.233Z" fill="white" stroke="#8D1739" stroke-width="0.8" stroke-miterlimit="10" stroke-linecap="round"/>
<path d="M36.7879 55.9117C37.3077 56.3445 37.6375 56.9634 37.7068 57.6362C37.776 58.309 37.5793 58.9822 37.1586 59.5118L35.8837 61.017C35.4314 61.5171 34.8013 61.82 34.1283 61.861C33.4553 61.9019 32.7931 61.6776 32.2835 61.2361L32.233 61.2192L32.1768 61.1687C31.6558 60.7367 31.3251 60.1176 31.2558 59.4443C31.1865 58.7711 31.3841 58.0976 31.8062 57.5685L32.8283 56.361L33.0755 56.0465C33.5287 55.5461 34.1598 55.243 34.8337 55.202C35.5076 55.1611 36.1708 55.3856 36.6812 55.8274L36.7262 55.8667L36.7879 55.9117Z" fill="white" stroke="#8D1739" stroke-width="0.8" stroke-miterlimit="10" stroke-linecap="round"/>
<path d="M64.1119 42.3872L59.1413 29.402L58.1978 26.942L71.9019 21.7019V43.4993L65.5384 46.1109L64.1119 42.3872Z" fill="#8D1739"/>
<path d="M32.0587 31.3342L34.3052 28.526C34.4316 28.364 34.6102 28.2508 34.8107 28.2059L42.3929 26.622C43.4621 26.2124 44.6474 26.2265 45.7066 26.6613L55.0692 30.6883L58.4391 29.6886L59.1524 29.4134L64.1285 42.3986L61.3596 44.0835L60.461 47.2287L49.9639 41.3596L49.9976 41.1911C48.9085 40.9736 47.8761 40.5338 46.9647 39.8993C45.1856 38.6062 43.9775 36.6733 43.5948 34.5075H37.9784C37.5024 35.3103 36.856 35.9988 36.0849 36.5246C35.3138 37.0504 34.4368 37.4006 33.5156 37.5505C32.5945 37.7005 31.6516 37.6466 30.7536 37.3925C29.8556 37.1384 29.0242 36.6904 28.3181 36.0801L32.0587 31.3342Z" fill="white" stroke="#8D1739" stroke-width="0.8" stroke-miterlimit="10" stroke-linecap="round"/>
<path d="M43.4882 58.5065L43.4152 58.6469C43.5913 59.1929 43.6384 59.7723 43.5526 60.3395C43.4669 60.9067 43.2506 61.4463 42.9209 61.9157V61.9494C42.4939 62.4901 41.8906 62.8638 41.2163 63.0055C40.542 63.1471 39.8394 63.0477 39.2309 62.7245C38.0683 62.1291 37.6246 61.9213 35.906 61.0395L37.1641 59.5343C37.5847 59.0047 37.7815 58.3315 37.7122 57.6588C37.6429 56.986 37.3132 56.367 36.7934 55.9342L36.7372 55.8893L36.6923 55.85C36.1818 55.4081 35.5187 55.1836 34.8448 55.2245C34.1709 55.2655 33.5398 55.5686 33.0865 56.069L32.8282 56.3723L32.5417 56.1308C32.9956 55.5565 33.2073 54.8277 33.1318 54.0997C33.0563 53.3716 32.6995 52.7018 32.1374 52.233L32.0812 52.1824L32.0306 52.1431C31.4773 51.6691 30.7613 51.4287 30.034 51.4727C29.3067 51.5167 28.625 51.8417 28.1328 52.379L28.0205 52.5026L27.633 52.1768C27.9402 51.9121 28.1891 51.5864 28.3637 51.2203C28.5384 50.8543 28.6351 50.456 28.6476 50.0506C28.6602 49.6453 28.5883 49.2417 28.4366 48.8656C28.2849 48.4895 28.0567 48.149 27.7665 47.8657C27.4762 47.5825 27.1302 47.3627 26.7505 47.2203C26.3708 47.0779 25.9656 47.0159 25.5606 47.0384C25.1557 47.0609 24.7599 47.1673 24.3982 47.3509C24.0366 47.5345 23.7171 47.7913 23.46 48.1049L23.2859 47.9589L23.4993 47.7061C23.8902 47.2154 24.0728 46.5908 24.0077 45.9668C23.9426 45.3428 23.6349 44.7693 23.1511 44.37L23.1005 44.3306L23.0612 44.2969C22.5887 43.8886 21.9753 43.6812 21.352 43.7189C20.7286 43.7567 20.1447 44.0367 19.725 44.4991L19.4442 44.8249L19.1072 44.5441L15.4734 44.061L20.2474 29.1775L23.2915 30.1379L32.0587 30.4412L28.3182 36.0576C29.0243 36.6679 29.8556 37.1159 30.7537 37.37C31.6517 37.6241 32.5945 37.678 33.5157 37.5281C34.4369 37.3781 35.3139 37.0279 36.085 36.5021C36.8561 35.9763 37.5024 35.2878 37.9785 34.485H43.5949C43.9776 36.6509 45.1856 38.5837 46.9648 39.8768C47.8762 40.5113 48.9086 40.9511 49.9976 41.1686L49.9639 41.3371L60.4442 47.2343C61.1762 47.5914 61.7415 48.2181 62.0215 48.9829C62.3015 49.7476 62.2745 50.5911 61.9462 51.3364C61.6178 52.0818 61.0136 52.671 60.2603 52.9805C59.507 53.2901 58.6631 53.2959 57.9056 52.9968L56.3498 52.188C56.5226 52.7191 56.5764 53.2817 56.5075 53.8359C56.4386 54.3901 56.2486 54.9224 55.9511 55.395V55.4343C55.5344 56.0283 54.9145 56.4489 54.2086 56.6166C53.5027 56.7843 52.7599 56.6874 52.1206 56.3442L50.4863 55.513L50.3627 55.7545C50.4966 56.3483 50.5043 56.9636 50.3853 57.5605C50.2663 58.1575 50.0232 58.7228 49.6719 59.2198C49.2736 59.713 48.7158 60.0519 48.0945 60.178C47.4732 60.3041 46.8274 60.2095 46.2683 59.9106L43.4882 58.5065Z" fill="white" stroke="#8D1739" stroke-width="0.8" stroke-miterlimit="10" stroke-linecap="round"/>
<path d="M20.2473 28.2674L16.372 41.3594L14.5017 47.2341L8.93579 45.3077V22.0837L20.9044 26.195L20.2473 28.2674Z" fill="#8D1739"/>
<path d="M56.3556 52.1881L51.3008 49.5596" stroke="#8D1739" stroke-width="2.4" stroke-miterlimit="10" stroke-linecap="round"/>
<path d="M49.9639 41.3594L60.4441 47.2342C61.1761 47.5913 61.7414 48.2179 62.0214 48.9827C62.3014 49.7475 62.2744 50.591 61.9461 51.3363C61.6178 52.0816 61.0136 52.6708 60.2603 52.9804C59.5069 53.2899 58.663 53.2957 57.9055 52.9966L56.3498 52.1879" stroke="#8D1739" stroke-width="2.4" stroke-miterlimit="10" stroke-linecap="round"/>
<path d="M56.3556 52.188C56.5283 52.7191 56.5822 53.2817 56.5133 53.8359C56.4443 54.3901 56.2544 54.9224 55.9568 55.395V55.4343C55.5402 56.0283 54.9202 56.4489 54.2144 56.6166C53.5085 56.7842 52.7656 56.6873 52.1264 56.3442L50.4864 55.5129L46.8245 53.6033" stroke="#8D1739" stroke-width="2.4" stroke-miterlimit="10" stroke-linecap="round"/>
<path d="M50.3572 55.7544C50.4911 56.3482 50.4988 56.9635 50.3798 57.5604C50.2608 58.1574 50.0178 58.7227 49.6664 59.2197C49.2681 59.713 48.7103 60.0518 48.089 60.1779C47.4677 60.304 46.8219 60.2095 46.2628 59.9106L43.5164 58.484L41.0059 57.1697" stroke="#8D1739" stroke-width="2.4" stroke-miterlimit="10" stroke-linecap="round"/>
<path d="M32.5867 30.5141L22.8422 29.6772L19.8149 28.6326" stroke="#8D1739" stroke-width="2.4" stroke-miterlimit="10"/>
<path d="M63.8141 42.2917L63.6624 42.3872L60.8935 44.089L59.9949 47.2342" stroke="#8D1739" stroke-width="2.4" stroke-miterlimit="10"/>
<path d="M51.6769 41.3596C51.1105 41.3725 50.5446 41.3159 49.992 41.1911C48.8785 40.9238 47.841 40.4051 46.9591 39.6746C46.3974 39.2253 44.1958 37.5067 43.5892 34.6929C43.5892 34.6142 43.5611 34.5468 43.5555 34.5075H37.9391C37.4631 35.3103 36.8167 35.9988 36.0456 36.5246C35.2745 37.0504 34.3975 37.4006 33.4763 37.5506C32.5552 37.7005 31.6123 37.6466 30.7143 37.3925C29.8162 37.1384 28.9849 36.6904 28.2788 36.0801L32.0194 31.3342L34.2659 28.526C34.3923 28.364 34.5709 28.2508 34.7714 28.2059L42.3536 26.622C43.4228 26.2124 44.6081 26.2265 45.6673 26.6613L55.0299 30.6883L58.3998 29.6886" stroke="#8D1739" stroke-width="2.4" stroke-linecap="round" stroke-linejoin="round"/>
<path d="M19.1073 44.5383L16.3721 43.606" stroke="#8D1739" stroke-width="2.4" stroke-miterlimit="10"/>
<path d="M23.2858 47.953L22.3085 49.0763C21.8905 49.5392 21.308 49.8201 20.6856 49.8589C20.0632 49.8978 19.4502 49.6915 18.978 49.2841L18.9387 49.2504L18.8825 49.2055C18.4003 48.8063 18.0937 48.234 18.0286 47.6113C17.9635 46.9887 18.145 46.3653 18.5343 45.875L19.4441 44.8078L19.725 44.4821C20.1447 44.0197 20.7285 43.7397 21.3519 43.7019C21.9752 43.6641 22.5886 43.8715 23.0611 44.2799L23.1004 44.3136L23.151 44.3698C23.6348 44.7691 23.9425 45.3426 24.0076 45.9666C24.0727 46.5906 23.8902 47.2152 23.4992 47.7059L23.2858 47.953Z" stroke="#8D1739" stroke-width="2.4" stroke-miterlimit="10" stroke-linecap="round"/>
<path d="M27.6329 52.1711L26.1558 53.9178C25.6672 54.4911 24.9743 54.8511 24.2243 54.9214C23.4744 54.9917 22.7266 54.7666 22.14 54.2941L22.0839 54.2492L22.0277 54.1987C21.4603 53.6976 21.1119 52.9941 21.0573 52.2392C21.0027 51.4842 21.2463 50.7379 21.7357 50.1604L23.2184 48.4193C23.2928 48.3099 23.3734 48.2049 23.4599 48.1048C23.7156 47.7877 24.0347 47.5274 24.3968 47.3407C24.7589 47.154 25.156 47.045 25.5627 47.0206C25.9694 46.9962 26.3766 47.057 26.7584 47.1991C27.1403 47.3412 27.4882 47.5615 27.78 47.8458C28.0717 48.1301 28.3009 48.4722 28.4529 48.8502C28.6048 49.2282 28.6761 49.6338 28.6623 50.041C28.6485 50.4481 28.5497 50.8479 28.3725 51.2147C28.1952 51.5815 27.9433 51.9073 27.6329 52.1711Z" stroke="#8D1739" stroke-width="2.4" stroke-miterlimit="10" stroke-linecap="round"/>
<path d="M32.5419 56.1027L31.1603 57.7314C30.6691 58.2679 29.9889 58.5929 29.2629 58.638C28.5369 58.683 27.8218 58.4446 27.2681 57.973L27.2175 57.9336L27.1557 57.8775C26.5961 57.408 26.2414 56.7389 26.167 56.0123C26.0925 55.2856 26.3042 54.5585 26.757 53.9853L28.0207 52.5025L28.1442 52.3565C28.6364 51.8192 29.3181 51.4942 30.0454 51.4502C30.7727 51.4062 31.4887 51.6466 32.042 52.1206L32.0926 52.1599L32.1375 52.233C32.6916 52.7009 33.0431 53.3651 33.1185 54.0864C33.1938 54.8078 32.9872 55.5303 32.5419 56.1027Z" stroke="#8D1739" stroke-width="2.4" stroke-miterlimit="10" stroke-linecap="round"/>
<path d="M35.8837 61.017C35.4314 61.5171 34.8013 61.82 34.1283 61.861C33.4553 61.9019 32.7931 61.6776 32.2835 61.2361L32.233 61.2192L32.1768 61.1687C31.6558 60.7367 31.3251 60.1176 31.2558 59.4443C31.1865 58.7711 31.3841 58.0976 31.8062 57.5685L32.8283 56.361L33.0755 56.0465C33.5287 55.5461 34.1598 55.243 34.8337 55.202C35.5076 55.1611 36.1708 55.3856 36.6812 55.8274L36.7262 55.8667L36.7823 55.9117C37.3021 56.3445 37.6319 56.9634 37.7011 57.6362C37.7704 58.309 37.5737 58.9822 37.153 59.5118L35.8837 61.017Z" stroke="#8D1739" stroke-width="2.4" stroke-miterlimit="10" stroke-linecap="round"/>
<path d="M43.4152 58.647C43.5914 59.1929 43.6384 59.7723 43.5526 60.3395C43.4669 60.9067 43.2506 61.4463 42.9209 61.9157V61.9494C42.4939 62.4901 41.8907 62.8639 41.2164 63.0055C40.5421 63.1471 39.8394 63.0477 39.2309 62.7245C38.0683 62.1292 37.6246 61.9214 35.906 61.0396" stroke="#8D1739" stroke-width="2.4" stroke-miterlimit="10" stroke-linecap="round"/>
<path d="M20.2192 28.3573L20.2473 28.2674L20.9044 26.195L8.9358 22.0837L8.90771 25.375L20.2192 28.3573Z" fill="#8D1739"/>
<path d="M8.92456 22.0837L20.4776 26.0489C20.5885 26.0874 20.6799 26.1676 20.7324 26.2726C20.7849 26.3775 20.7942 26.4988 20.7584 26.6106L14.6421 46.8017C14.606 46.9146 14.5266 47.0087 14.4214 47.0634C14.3162 47.1181 14.1937 47.129 14.0805 47.0937L8.92456 45.3077" stroke="#8D1739" stroke-width="2.4" stroke-miterlimit="10" stroke-linecap="round"/>
<path d="M57.8831 26.942L58.4728 29.8008L71.267 23.9485V21.7019L57.8831 26.942Z" fill="#8D1739"/>
<path d="M71.9017 43.4993L65.9483 45.9593C65.8387 45.996 65.7192 45.989 65.6146 45.9399C65.51 45.8907 65.4284 45.8031 65.3867 45.6953L58.3493 27.3689C58.3129 27.2586 58.3206 27.1385 58.3709 27.0338C58.4212 26.929 58.51 26.8479 58.6188 26.8072L71.8905 21.7188" stroke="#8D1739" stroke-width="2.4" stroke-linecap="round" stroke-linejoin="round"/>
<path d="M78.4167 46.6277C79.0371 46.6277 79.54 46.1248 79.54 45.5044C79.54 44.884 79.0371 44.3811 78.4167 44.3811C77.7964 44.3811 77.2935 44.884 77.2935 45.5044C77.2935 46.1248 77.7964 46.6277 78.4167 46.6277Z" stroke="#8D1739" stroke-width="1.6" stroke-miterlimit="10" stroke-linecap="round"/>
<path d="M71.0031 51.3568C71.4994 51.3568 71.9018 50.9545 71.9018 50.4582C71.9018 49.9619 71.4994 49.5596 71.0031 49.5596C70.5068 49.5596 70.1045 49.9619 70.1045 50.4582C70.1045 50.9545 70.5068 51.3568 71.0031 51.3568Z" fill="#8D1739"/>
<path d="M76.5466 53.9739L78.3439 55.7711" stroke="#8D1739" stroke-width="1.6" stroke-miterlimit="10" stroke-linecap="round"/>
<path d="M78.3439 53.9739L76.5466 55.7711" stroke="#8D1739" stroke-width="1.6" stroke-miterlimit="10" stroke-linecap="round"/>
<path d="M7.67208 10.2218L8.98071 9.54786C8.98799 9.54355 8.99634 9.54138 9.00481 9.5416C9.01327 9.54183 9.02149 9.54444 9.02854 9.54913C9.03558 9.55383 9.04115 9.56042 9.04462 9.56814C9.04808 9.57587 9.04929 9.58441 9.04811 9.5928L8.80098 11.0475L9.92427 12.1427L8.3629 12.3561L7.66646 13.7602L6.98126 12.3561L5.52098 12.1427C5.51396 12.1388 5.50811 12.1331 5.50403 12.1262C5.49995 12.1192 5.4978 12.1114 5.4978 12.1033C5.4978 12.0953 5.49995 12.0874 5.50403 12.0805C5.50811 12.0736 5.51396 12.0679 5.52098 12.064L6.57687 11.0306L6.28482 9.4917L7.67208 10.2218Z" fill="#8D1739"/>
<path d="M13.6201 17.2087C14.2405 17.2087 14.7434 16.7058 14.7434 16.0854C14.7434 15.4651 14.2405 14.9622 13.6201 14.9622C12.9997 14.9622 12.4968 15.4651 12.4968 16.0854C12.4968 16.7058 12.9997 17.2087 13.6201 17.2087Z" stroke="#8D1739" stroke-width="1.6" stroke-miterlimit="10" stroke-linecap="round"/>
<path d="M3.90913 19.006C4.40543 19.006 4.80776 18.6037 4.80776 18.1074C4.80776 17.6111 4.40543 17.2087 3.90913 17.2087C3.41283 17.2087 3.0105 17.6111 3.0105 18.1074C3.0105 18.6037 3.41283 19.006 3.90913 19.006Z" fill="#8D1739"/>
<path d="M42.6233 68.5205V71.8904" stroke="#8D1739" stroke-width="2" stroke-miterlimit="10" stroke-linecap="round"/>
<path d="M44.3083 70.2056H40.9385" stroke="#8D1739" stroke-width="2" stroke-miterlimit="10" stroke-linecap="round"/>
<path d="M35.0244 68.88C35.5207 68.88 35.923 68.4777 35.923 67.9814C35.923 67.4851 35.5207 67.0828 35.0244 67.0828C34.5281 67.0828 34.1257 67.4851 34.1257 67.9814C34.1257 68.4777 34.5281 68.88 35.0244 68.88Z" fill="#8D1739"/>
</svg>
