<svg width="80" height="82" viewBox="0 0 80 82" fill="none" xmlns="http://www.w3.org/2000/svg">
<path d="M37.7004 2.19107C39.1425 1.44414 40.8575 1.44414 42.2996 2.19107L50.3911 6.38202C50.8768 6.63361 51.4005 6.80379 51.9414 6.88576L60.9509 8.25125C62.5566 8.49461 63.9441 9.50267 64.6717 10.9546L68.7545 19.1012C68.9996 19.5902 69.3233 20.0357 69.7126 20.42L76.1989 26.8203C77.3549 27.961 77.8848 29.5921 77.6201 31.1944L76.1347 40.1849C76.0455 40.7247 76.0455 41.2753 76.1347 41.8151L77.6201 50.8056C77.8848 52.4079 77.3549 54.039 76.1989 55.1797L69.7126 61.58C69.3233 61.9643 68.9996 62.4098 68.7545 62.8988L64.6717 71.0454C63.9441 72.4973 62.5566 73.5054 60.9509 73.7487L51.9414 75.1142C51.4005 75.1962 50.8768 75.3664 50.3911 75.618L42.2996 79.8089C40.8575 80.5559 39.1425 80.5559 37.7004 79.8089L29.6089 75.618C29.1232 75.3664 28.5995 75.1962 28.0586 75.1142L19.0491 73.7487C17.4434 73.5054 16.0559 72.4973 15.3283 71.0454L11.2455 62.8988C11.0004 62.4098 10.6767 61.9643 10.2874 61.58L3.80112 55.1797C2.64513 54.039 2.11516 52.4079 2.3799 50.8056L3.86533 41.8151C3.95451 41.2753 3.95451 40.7247 3.86533 40.1849L2.3799 31.1944C2.11516 29.5921 2.64513 27.961 3.80112 26.8203L10.2874 20.42C10.6767 20.0357 11.0004 19.5902 11.2455 19.1012L15.3283 10.9546C16.0559 9.50267 17.4434 8.49461 19.0491 8.25125L28.0586 6.88576C28.5995 6.80379 29.1232 6.63361 29.6089 6.38202L37.7004 2.19107Z" fill="white" stroke="#006C3B" stroke-width="3"/>
</svg>
