<svg width="73" height="72" viewBox="0 0 73 72" fill="none" xmlns="http://www.w3.org/2000/svg">
<path d="M69.6057 26.7478L65.515 21.869L64.1602 15.6482C64.0049 14.9352 63.6788 14.2705 63.21 13.7114C62.7412 13.1522 62.1436 12.7152 61.4686 12.438L55.5793 10.0191L51.4886 5.14037C51.0198 4.58119 50.4222 4.14421 49.7472 3.86697C49.0722 3.58974 48.34 3.48053 47.6134 3.54874L41.2746 4.14387L35.3852 1.72494C34.7103 1.4477 33.978 1.33849 33.2515 1.4067C32.525 1.4749 31.8259 1.71848 31.2143 2.1165L25.8781 5.58925L19.5392 6.18435C18.8127 6.25256 18.1136 6.49614 17.502 6.89416C16.8904 7.29219 16.3846 7.83275 16.028 8.4694L12.9169 14.0242L7.58063 17.497C6.96903 17.895 6.46321 18.4356 6.10664 19.0722C5.75007 19.7089 5.5534 20.4226 5.53354 21.152L5.3602 27.5164L2.24906 33.0712C1.8925 33.7079 1.69584 34.4216 1.67599 35.151C1.65613 35.8805 1.81367 36.6038 2.13507 37.2589L4.93927 42.9749L4.76595 49.3393C4.74609 50.0687 4.90363 50.7921 5.22502 51.4472C5.54642 52.1023 6.02207 52.6696 6.6111 53.1003L11.7504 56.8583L14.5547 62.5742C14.8761 63.2294 15.3517 63.7967 15.9407 64.2274C16.5298 64.6581 17.2146 64.9394 17.9363 65.047L24.2334 65.9862L29.3727 69.7442C29.9618 70.1749 30.6465 70.4562 31.3683 70.5638C32.09 70.6715 32.8271 70.6023 33.5161 70.3622L39.5284 68.2674L45.8255 69.2066C46.5472 69.3142 47.2843 69.245 47.9734 69.005C48.6625 68.7649 49.283 68.3611 49.7816 67.8282L54.1316 63.1794L60.1439 61.0845C60.833 60.8445 61.4535 60.4407 61.952 59.9078C62.4506 59.375 62.8123 58.7291 63.0062 58.0256L64.6976 51.8877L69.0477 47.2388C69.5462 46.706 69.908 46.06 70.1019 45.3566C70.2957 44.6531 70.3159 43.913 70.1606 43.2L68.8058 36.9791L70.4972 30.8411C70.691 30.1376 70.7111 29.3976 70.5559 28.6846C70.4006 27.9716 70.0745 27.3069 69.6057 26.7478ZM36.1667 58.7287C31.6714 58.7287 27.2771 57.3957 23.5394 54.8982C19.8017 52.4008 16.8885 48.8511 15.1682 44.6979C13.4479 40.5448 12.9978 35.9749 13.8748 31.5659C14.7518 27.157 16.9165 23.1071 20.0951 19.9285C23.2738 16.7498 27.3236 14.5851 31.7326 13.7081C36.1415 12.8311 40.7115 13.2812 44.8646 15.0015C49.0177 16.7218 52.5674 19.635 55.0649 23.3727C57.5624 27.1104 58.8954 31.5048 58.8954 36.0001C58.8954 42.0281 56.5007 47.8092 52.2383 52.0716C47.9759 56.3341 42.1947 58.7287 36.1667 58.7287Z" fill="#8D1739"/>
<path d="M48.6139 31.7005C48.3082 31.6227 47.9956 31.5751 47.6807 31.5584C45.5605 31.3859 43.4506 31.2033 41.3305 31.0918C41.128 31.1023 40.9284 31.0409 40.7669 30.9183C40.6054 30.7958 40.4924 30.6201 40.448 30.4223C39.606 28.2718 38.7438 26.1212 37.8815 23.9706C37.7748 23.636 37.5612 23.3455 37.2735 23.144C36.9858 22.9424 36.6399 22.8408 36.2889 22.8548C35.9393 22.8377 35.5929 22.9288 35.2969 23.1158C35.001 23.3028 34.77 23.5766 34.6354 23.8997C34.5473 24.0777 34.4694 24.2606 34.4021 24.4474C33.5805 26.4458 32.7588 28.4441 31.9371 30.4425C31.8154 30.7367 31.7038 30.9396 31.3285 30.9599C28.9142 31.1019 26.5 31.2743 24.0857 31.4265C23.6684 31.4553 23.2758 31.6348 22.9809 31.9315C22.6861 32.2282 22.5091 32.6219 22.4829 33.0394C22.422 33.9524 22.9698 34.4697 23.5785 34.9668C25.2218 36.3463 26.855 37.7361 28.4983 39.1157C28.6192 39.1985 28.7089 39.3194 28.753 39.4591C28.7971 39.5989 28.7932 39.7494 28.7417 39.8866C28.1331 42.1994 27.5549 44.5224 26.9665 46.8454C26.9055 47.0653 26.8893 47.2951 26.9189 47.5214C26.9484 47.7476 27.0231 47.9656 27.1386 48.1624C27.254 48.3592 27.4078 48.5308 27.5909 48.667C27.7739 48.8033 27.9824 48.9013 28.2041 48.9553C28.4973 49.0164 28.8 49.0164 29.0932 48.9553C29.3864 48.8942 29.6639 48.7734 29.9083 48.6003C31.7444 47.4338 33.621 46.3078 35.4571 45.1311C35.6137 45.0016 35.8101 44.93 36.0132 44.9281C36.2164 44.9263 36.414 44.9944 36.5729 45.121C38.48 46.3585 40.4175 47.5656 42.355 48.7829C42.6568 49.0156 43.0255 49.1448 43.4064 49.1515C43.7874 49.1581 44.1604 49.0418 44.4701 48.8198C44.7798 48.5978 45.0097 48.2819 45.1257 47.9189C45.2417 47.556 45.2377 47.1653 45.1142 46.8048C44.5968 44.6746 44.0896 42.5443 43.5317 40.4141C43.4449 40.1783 43.4397 39.9203 43.5169 39.6812C43.5941 39.4421 43.7494 39.2358 43.9577 39.0954C45.7127 37.7057 47.4169 36.2551 49.1515 34.8248C49.3722 34.6793 49.5523 34.4801 49.6747 34.2458C49.7972 34.0116 49.858 33.75 49.8514 33.4858C49.8812 33.0914 49.7744 32.6988 49.5491 32.3737C49.3238 32.0487 48.9936 31.811 48.6139 31.7005Z" fill="#8D1739"/>
</svg>
