<svg width="694" height="699" viewBox="0 0 694 699" fill="none" xmlns="http://www.w3.org/2000/svg">
<circle cx="347.5" cy="357.5" r="317.5" stroke="#006C3B" stroke-width="5" stroke-dasharray="26 26"/>
<path d="M380.7 2.19107C382.142 1.44414 383.858 1.44414 385.3 2.19107L393.391 6.38202C393.877 6.63361 394.401 6.80379 394.941 6.88576L403.951 8.25125C405.557 8.49461 406.944 9.50267 407.672 10.9546L411.754 19.1012C412 19.5902 412.323 20.0358 412.713 20.42L419.199 26.8203C420.355 27.961 420.885 29.5921 420.62 31.1944L419.135 40.1849C419.045 40.7247 419.045 41.2753 419.135 41.8151L420.62 50.8056C420.885 52.4079 420.355 54.039 419.199 55.1797L412.713 61.58C412.323 61.9643 412 62.4098 411.754 62.8988L407.672 71.0454C406.944 72.4973 405.557 73.5054 403.951 73.7488L394.941 75.1142C394.401 75.1962 393.877 75.3664 393.391 75.618L385.3 79.8089C383.858 80.5559 382.142 80.5559 380.7 79.8089L372.609 75.618C372.123 75.3664 371.599 75.1962 371.059 75.1142L362.049 73.7488C360.443 73.5054 359.056 72.4973 358.328 71.0454L354.246 62.8988C354 62.4098 353.677 61.9643 353.287 61.58L346.801 55.1797C345.645 54.039 345.115 52.4079 345.38 50.8056L346.865 41.8151C346.955 41.2753 346.955 40.7247 346.865 40.1849L345.38 31.1944C345.115 29.5921 345.645 27.961 346.801 26.8203L353.287 20.42C353.677 20.0357 354 19.5902 354.246 19.1012L358.328 10.9546C359.056 9.50267 360.443 8.49461 362.049 8.25125L371.059 6.88576C371.599 6.80379 372.123 6.63361 372.609 6.38202L380.7 2.19107Z" fill="white" stroke="#006C3B" stroke-width="3"/>
<path d="M401.333 41.0003C401.333 51.1253 393.124 59.3337 382.999 59.3337C372.874 59.3337 364.666 51.1253 364.666 41.0003C364.666 30.8753 372.874 22.667 382.999 22.667C393.124 22.667 401.333 30.8753 401.333 41.0003ZM391.816 38.5003H384.666V28.382L374.183 43.5003H381.333V53.6187L391.816 38.5003Z" fill="#8D1738"/>
<path d="M232.7 619.191C234.142 618.444 235.858 618.444 237.3 619.191L245.391 623.382C245.877 623.634 246.401 623.804 246.941 623.886L255.951 625.251C257.557 625.495 258.944 626.503 259.672 627.955L263.754 636.101C264 636.59 264.323 637.036 264.713 637.42L271.199 643.82C272.355 644.961 272.885 646.592 272.62 648.194L271.135 657.185C271.045 657.725 271.045 658.275 271.135 658.815L272.62 667.806C272.885 669.408 272.355 671.039 271.199 672.18L264.713 678.58C264.323 678.964 264 679.41 263.754 679.899L259.672 688.045C258.944 689.497 257.557 690.505 255.951 690.749L246.941 692.114C246.401 692.196 245.877 692.366 245.391 692.618L237.3 696.809C235.858 697.556 234.142 697.556 232.7 696.809L224.609 692.618C224.123 692.366 223.599 692.196 223.059 692.114L214.049 690.749C212.443 690.505 211.056 689.497 210.328 688.045L206.246 679.899C206 679.41 205.677 678.964 205.287 678.58L198.801 672.18C197.645 671.039 197.115 669.408 197.38 667.806L198.865 658.815C198.955 658.275 198.955 657.725 198.865 657.185L197.38 648.194C197.115 646.592 197.645 644.961 198.801 643.82L205.287 637.42C205.677 637.036 206 636.59 206.246 636.101L210.328 627.955C211.056 626.503 212.443 625.495 214.049 625.251L223.059 623.886C223.599 623.804 224.123 623.634 224.609 623.382L232.7 619.191Z" fill="white" stroke="#006C3B" stroke-width="3"/>
<path d="M249.999 669.667H253.333V673H216.666V669.667H219.999V644.667C219.999 644.225 220.175 643.801 220.488 643.488C220.8 643.176 221.224 643 221.666 643H238.333C238.775 643 239.199 643.176 239.511 643.488C239.824 643.801 239.999 644.225 239.999 644.667V669.667H243.333V653H248.333C248.775 653 249.199 653.176 249.511 653.488C249.824 653.801 249.999 654.225 249.999 654.667V669.667ZM226.666 656.333V659.667H233.333V656.333H226.666ZM226.666 649.667V653H233.333V649.667H226.666Z" fill="#8D1738"/>
<path d="M527.7 579.191C529.142 578.444 530.858 578.444 532.3 579.191L540.391 583.382C540.877 583.634 541.401 583.804 541.941 583.886L550.951 585.251C552.557 585.495 553.944 586.503 554.672 587.955L558.754 596.101C559 596.59 559.323 597.036 559.713 597.42L566.199 603.82C567.355 604.961 567.885 606.592 567.62 608.194L566.135 617.185C566.045 617.725 566.045 618.275 566.135 618.815L567.62 627.806C567.885 629.408 567.355 631.039 566.199 632.18L559.713 638.58C559.323 638.964 559 639.41 558.754 639.899L554.672 648.045C553.944 649.497 552.557 650.505 550.951 650.749L541.941 652.114C541.401 652.196 540.877 652.366 540.391 652.618L532.3 656.809C530.858 657.556 529.142 657.556 527.7 656.809L519.609 652.618C519.123 652.366 518.599 652.196 518.059 652.114L509.049 650.749C507.443 650.505 506.056 649.497 505.328 648.045L501.246 639.899C501 639.41 500.677 638.964 500.287 638.58L493.801 632.18C492.645 631.039 492.115 629.408 492.38 627.806L493.865 618.815C493.955 618.275 493.955 617.725 493.865 617.185L492.38 608.194C492.115 606.592 492.645 604.961 493.801 603.82L500.287 597.42C500.677 597.036 501 596.59 501.246 596.101L505.328 587.955C506.056 586.503 507.443 585.495 509.049 585.251L518.059 583.886C518.599 583.804 519.123 583.634 519.609 583.382L527.7 579.191Z" fill="white" stroke="#006C3B" stroke-width="3"/>
<mask id="mask0_711_2885" style="mask-type:luminance" maskUnits="userSpaceOnUse" x="513" y="602" width="34" height="32">
<path d="M544.166 612.166H515.833C515.391 612.166 514.967 612.342 514.654 612.654C514.342 612.967 514.166 613.391 514.166 613.833V630.5C514.166 630.942 514.342 631.366 514.654 631.678C514.967 631.991 515.391 632.166 515.833 632.166H544.166C544.608 632.166 545.032 631.991 545.345 631.678C545.657 631.366 545.833 630.942 545.833 630.5V613.833C545.833 613.391 545.657 612.967 545.345 612.654C545.032 612.342 544.608 612.166 544.166 612.166ZM538.333 603.833H521.666V612.166H538.333V603.833Z" fill="white" stroke="white" stroke-width="2" stroke-linejoin="round"/>
<path d="M525.832 622.167H534.165M529.999 618V626.333" stroke="black" stroke-width="2" stroke-linecap="round"/>
</mask>
<g mask="url(#mask0_711_2885)">
<path d="M510 598H550V638H510V598Z" fill="#8D1738"/>
</g>
<path d="M651.7 274.191C653.142 273.444 654.858 273.444 656.3 274.191L664.391 278.382C664.877 278.634 665.401 278.804 665.941 278.886L674.951 280.251C676.557 280.495 677.944 281.503 678.672 282.955L682.754 291.101C683 291.59 683.323 292.036 683.713 292.42L690.199 298.82C691.355 299.961 691.885 301.592 691.62 303.194L690.135 312.185C690.045 312.725 690.045 313.275 690.135 313.815L691.62 322.806C691.885 324.408 691.355 326.039 690.199 327.18L683.713 333.58C683.323 333.964 683 334.41 682.754 334.899L678.672 343.045C677.944 344.497 676.557 345.505 674.951 345.749L665.941 347.114C665.401 347.196 664.877 347.366 664.391 347.618L656.3 351.809C654.858 352.556 653.142 352.556 651.7 351.809L643.609 347.618C643.123 347.366 642.599 347.196 642.059 347.114L633.049 345.749C631.443 345.505 630.056 344.497 629.328 343.045L625.246 334.899C625 334.41 624.677 333.964 624.287 333.58L617.801 327.18C616.645 326.039 616.115 324.408 616.38 322.806L617.865 313.815C617.955 313.275 617.955 312.725 617.865 312.185L616.38 303.194C616.115 301.592 616.645 299.961 617.801 298.82L624.287 292.42C624.677 292.036 625 291.59 625.246 291.101L629.328 282.955C630.056 281.503 631.443 280.495 633.049 280.251L642.059 278.886C642.599 278.804 643.123 278.634 643.609 278.382L651.7 274.191Z" fill="white" stroke="#006C3B" stroke-width="3"/>
<path d="M654.616 293.35C653.876 293.35 653.135 293.355 652.395 293.366C651.445 293.381 650.935 293.816 650.898 294.526C650.851 295.4 650.888 296.273 650.888 297.215H658.276C658.276 296.245 658.318 295.32 658.26 294.396C658.22 293.745 657.673 293.38 656.835 293.368C656.095 293.356 655.355 293.35 654.616 293.35ZM651.806 297.883C652.173 298.788 651.553 299.246 650.803 299.686C650.322 299.97 649.87 300.301 649.455 300.675C646.963 302.95 645.756 305.5 646.7 308.501C646.868 309.038 647.193 309.258 647.983 309.25C652.05 309.21 656.116 309.23 660.183 309.23C662.361 309.23 662.555 309.096 662.81 307.401C662.829 307.243 662.837 307.083 662.833 306.923C662.798 305.51 662.406 304.129 661.695 302.908C660.985 301.687 659.977 300.665 658.766 299.936C657.981 299.386 656.876 298.975 657.283 297.883H651.806ZM652.156 300.366C652.224 300.363 652.292 300.364 652.36 300.37C651.331 301.385 650.406 302.5 649.6 303.7C649.087 304.921 648.723 306.2 648.513 307.508C647.43 305.091 650.056 300.47 652.156 300.366ZM647.346 309.79V323.153H661.89V309.79H647.346ZM649.153 311.186L649.501 311.193C649.576 311.425 649.625 311.664 649.648 311.906C649.658 314.886 649.653 317.868 649.651 320.848C649.669 321.007 649.658 321.168 649.618 321.323C649.58 321.426 649.425 321.501 649.321 321.59C649.21 321.51 649.031 321.443 649 321.346C648.96 321.164 648.949 320.976 648.966 320.79C648.966 317.861 648.961 314.935 648.973 312.006C649.004 311.727 649.064 311.453 649.153 311.186ZM661.448 323.775C659.178 323.816 656.903 323.791 654.631 323.791H648.331C646.761 323.791 646.336 324.05 646.291 325.288C646.231 327.044 646.231 328.802 646.291 330.558C646.323 331.476 647.045 332.136 648.173 332.34C649.235 332.53 650.433 332.806 651.226 331.823C651.57 331.4 651.966 331.428 652.393 331.785C653.116 332.395 655.343 332.878 655.993 332.345C657.076 331.456 657.596 331.688 658.771 332.326C659.158 332.51 659.579 332.609 660.006 332.617C660.434 332.624 660.858 332.54 661.251 332.37C661.643 332.2 661.995 331.947 662.281 331.63C662.568 331.312 662.783 330.937 662.913 330.53C663 328.776 662.998 327.018 662.906 325.265C662.859 324.971 662.768 324.686 662.636 324.42C662.47 323.951 662.133 323.761 661.448 323.775ZM648.358 325.24C648.488 325.398 648.718 325.551 648.725 325.715C648.766 326.458 648.746 327.205 648.746 327.951C648.746 328.67 648.763 329.391 648.73 330.11C648.723 330.256 648.521 330.398 648.41 330.543C648.265 330.398 647.993 330.255 647.991 330.11C647.961 328.646 647.959 327.182 647.988 325.718C647.99 325.558 648.23 325.398 648.358 325.24Z" fill="#8D1738"/>
<path d="M37.7004 425.191C39.1425 424.444 40.8575 424.444 42.2996 425.191L50.3911 429.382C50.8768 429.634 51.4005 429.804 51.9414 429.886L60.9509 431.251C62.5566 431.495 63.9441 432.503 64.6717 433.955L68.7545 442.101C68.9996 442.59 69.3233 443.036 69.7126 443.42L76.1989 449.82C77.3549 450.961 77.8848 452.592 77.6201 454.194L76.1347 463.185C76.0455 463.725 76.0455 464.275 76.1347 464.815L77.6201 473.806C77.8848 475.408 77.3549 477.039 76.1989 478.18L69.7126 484.58C69.3233 484.964 68.9996 485.41 68.7545 485.899L64.6717 494.045C63.9441 495.497 62.5566 496.505 60.9509 496.749L51.9414 498.114C51.4005 498.196 50.8768 498.366 50.3911 498.618L42.2996 502.809C40.8575 503.556 39.1425 503.556 37.7004 502.809L29.6089 498.618C29.1232 498.366 28.5995 498.196 28.0586 498.114L19.0491 496.749C17.4434 496.505 16.0559 495.497 15.3283 494.045L11.2455 485.899C11.0004 485.41 10.6767 484.964 10.2874 484.58L3.80112 478.18C2.64513 477.039 2.11516 475.408 2.3799 473.806L3.86533 464.815C3.95451 464.275 3.95451 463.725 3.86533 463.185L2.3799 454.194C2.11516 452.592 2.64513 450.961 3.80112 449.82L10.2874 443.42C10.6767 443.036 11.0004 442.59 11.2455 442.101L15.3283 433.955C16.0559 432.503 17.4434 431.495 19.0491 431.251L28.0586 429.886C28.5995 429.804 29.1232 429.634 29.6089 429.382L37.7004 425.191Z" fill="white" stroke="#006C3B" stroke-width="3"/>
<path d="M52.1094 449.337V449.392C52.1094 451.415 47.9219 453.063 40 453.063C31.6797 453.063 27.8906 451.415 27.8906 449.392V449.298C27.8906 448.126 29.1953 447.196 31.7734 446.54C33.9766 445.978 36.8984 445.673 40 445.673C43.0937 445.673 46.0156 445.978 48.2266 446.54C50.8047 447.196 52.1094 448.126 52.1094 449.298V449.337ZM38.2812 449.298C38.2812 448.97 37.25 448.712 35.9844 448.712C34.7109 448.712 33.6797 448.97 33.6797 449.298C33.6797 449.618 34.7109 449.884 35.9844 449.884C37.25 449.884 38.2812 449.618 38.2812 449.298ZM51.375 456.946V452.242C50.6953 452.758 49.6641 453.196 48.2812 453.547C46.0547 454.117 43.1172 454.422 40 454.422C36.8828 454.422 33.9453 454.11 31.7188 453.547C30.3359 453.196 29.3047 452.766 28.625 452.242V456.946C28.1328 457.36 27.8906 457.821 27.8906 458.328V458.414C27.8906 460.438 31.6797 462.078 40 462.078C47.9219 462.078 52.1094 460.438 52.1094 458.414V458.328C52.1094 457.821 51.8672 457.36 51.375 456.946ZM51.375 467.016V461.274C50.6953 461.789 49.6641 462.227 48.2812 462.578C46.0547 463.141 43.1172 463.453 40 463.453C36.8828 463.453 33.9453 463.141 31.7188 462.578C30.3359 462.227 29.3047 461.789 28.625 461.274V467.016C28.1328 467.43 27.8906 467.891 27.8906 468.399V468.469C27.8906 470.492 31.6797 472.133 40 472.133C47.9219 472.133 52.1094 470.492 52.1094 468.469V468.399C52.1094 467.883 51.8672 467.422 51.375 467.016ZM52.0703 478.375C51.9844 477.992 51.7578 477.641 51.375 477.321V471.344C50.6953 471.86 49.6641 472.297 48.2812 472.649C46.0547 473.211 43.1172 473.524 40 473.524C36.8828 473.524 33.9453 473.211 31.7188 472.649C30.3359 472.297 29.3047 471.86 28.625 471.344V477.321C28.2422 477.641 28.0156 477.992 27.9297 478.375C27.9062 478.469 27.8906 478.571 27.8906 478.664V478.703C27.8906 479.149 28.0703 479.555 28.4375 479.922C29.7656 481.328 33.5 482.328 40 482.328C44.7031 482.328 48.0937 481.75 50.0703 480.852C51.4219 480.266 52.1094 479.555 52.1094 478.703V478.664C52.1094 478.571 52.0938 478.469 52.0703 478.375Z" fill="#8D1738"/>
<path d="M94.7004 130.191C96.1425 129.444 97.8575 129.444 99.2996 130.191L107.391 134.382C107.877 134.634 108.401 134.804 108.941 134.886L117.951 136.251C119.557 136.495 120.944 137.503 121.672 138.955L125.754 147.101C126 147.59 126.323 148.036 126.713 148.42L133.199 154.82C134.355 155.961 134.885 157.592 134.62 159.194L133.135 168.185C133.045 168.725 133.045 169.275 133.135 169.815L134.62 178.806C134.885 180.408 134.355 182.039 133.199 183.18L126.713 189.58C126.323 189.964 126 190.41 125.754 190.899L121.672 199.045C120.944 200.497 119.557 201.505 117.951 201.749L108.941 203.114C108.401 203.196 107.877 203.366 107.391 203.618L99.2996 207.809C97.8575 208.556 96.1425 208.556 94.7004 207.809L86.6089 203.618C86.1232 203.366 85.5995 203.196 85.0586 203.114L76.0491 201.749C74.4434 201.505 73.0559 200.497 72.3283 199.045L68.2455 190.899C68.0004 190.41 67.6767 189.964 67.2874 189.58L60.8011 183.18C59.6451 182.039 59.1152 180.408 59.3799 178.806L60.8653 169.815C60.9545 169.275 60.9545 168.725 60.8653 168.185L59.3799 159.194C59.1152 157.592 59.6451 155.961 60.8011 154.82L67.2874 148.42C67.6767 148.036 68.0004 147.59 68.2455 147.101L72.3283 138.955C73.0559 137.503 74.4434 136.495 76.0491 136.251L85.0586 134.886C85.5995 134.804 86.1232 134.634 86.6089 134.382L94.7004 130.191Z" fill="white" stroke="#006C3B" stroke-width="3"/>
<path d="M115.333 169C115.333 179.125 107.124 187.334 96.9993 187.334C86.8743 187.334 78.666 179.125 78.666 169C78.666 158.875 86.8743 150.667 96.9993 150.667C107.124 150.667 115.333 158.875 115.333 169ZM105.816 166.5H98.666V156.382L88.1827 171.5H95.3327V181.619L105.816 166.5Z" fill="#8D1738"/>
</svg>
