<svg width="38" height="38" viewBox="0 0 38 38" fill="none" xmlns="http://www.w3.org/2000/svg">
<path d="M14.7113 10.2471H23.2967C24.1607 10.2471 24.8612 9.54662 24.8612 8.68263V7.62404C24.8612 6.76005 24.1607 6.05952 23.2967 6.05952H22.8141V5.39791C22.8141 4.73629 22.277 4.19922 21.6154 4.19922H16.3925C15.7309 4.19922 15.1938 4.73629 15.1938 5.39791V6.05952H14.7113C13.8473 6.05952 13.1467 6.76005 13.1467 7.62404V8.68263C13.1467 9.5544 13.8473 10.2471 14.7113 10.2471Z" fill="#8D1739"/>
<path d="M33.6333 8.29297H26.3011V8.68215C26.3011 10.3401 24.9467 11.6944 23.2888 11.6944H14.7112C13.0533 11.6944 11.6989 10.3401 11.6989 8.68215V8.29297H4.36665C1.95371 8.29297 0 10.2467 0 12.6596V29.4335C0 31.8464 1.95371 33.8001 4.36665 33.8001H33.6333C36.0463 33.8001 38 31.8464 38 29.4335V12.6596C38 10.2545 36.0463 8.29297 33.6333 8.29297ZM10.9361 28.6084C6.76403 28.6084 3.37812 25.2225 3.37812 21.0504C3.37812 16.8784 6.76403 13.4925 10.9361 13.4925C15.1082 13.4925 18.4941 16.8784 18.4941 21.0504C18.4941 25.2225 15.1159 28.6084 10.9361 28.6084ZM33.7345 25.2926H20.9771V23.6658H33.7267V25.2926H33.7345ZM33.7345 21.8599H20.9771V20.2332H33.7267V21.8599H33.7345ZM33.7345 18.4273H20.9771V16.8005H33.7267V18.4273H33.7345Z" fill="#8D1739"/>
<path d="M10.9594 14.9482C7.58901 14.9482 4.85693 17.6803 4.85693 21.0507C4.85693 22.4984 5.36287 23.8294 6.20351 24.8725C6.258 24.3821 6.46816 23.8217 7.09085 23.666C8.28954 23.3624 9.2625 22.6775 9.2625 22.6775L10.1654 25.5263L10.29 25.9155L10.6947 24.7713C9.68282 23.3624 10.9594 23.4169 10.9594 23.4169C10.9594 23.4169 12.2359 23.3624 11.224 24.7713L11.621 25.9077L11.7455 25.5263V25.5341L11.8856 25.0826L12.6406 22.6852C12.6406 22.6852 13.6136 23.3702 14.8123 23.6738C15.435 23.8294 15.6451 24.3899 15.6996 24.8802C16.5403 23.8372 17.0462 22.5062 17.0462 21.0584C17.0618 17.6803 14.3297 14.9482 10.9594 14.9482ZM13.3723 20.3346C13.2166 20.895 13.0609 21.0584 12.952 21.0662C12.8508 21.7356 12.3137 22.584 11.4809 22.8876C11.1306 23.0121 10.7492 23.0121 10.3989 22.8876C9.5505 22.584 9.02899 21.7356 8.92781 21.0662C8.81883 21.0584 8.66316 20.9028 8.50749 20.3346C8.28954 19.564 8.52305 19.4472 8.71765 19.4706C8.67873 19.3616 8.65538 19.2604 8.63203 19.1514C8.56197 18.7934 8.5464 18.4587 8.62424 18.1318C8.72543 17.7037 8.95894 17.3612 9.2158 17.0888C9.37926 16.9175 9.56607 16.7618 9.76066 16.6373C9.92412 16.5283 10.1031 16.4271 10.29 16.3649C10.4456 16.3104 10.6013 16.2793 10.7725 16.2715C11.3018 16.2248 11.6988 16.3571 11.9868 16.5283C12.4149 16.7618 12.5784 17.081 12.5784 17.081C12.5784 17.081 13.5591 17.151 13.2322 19.1514C13.2166 19.2526 13.1855 19.3616 13.1466 19.4706C13.3567 19.455 13.5902 19.564 13.3723 20.3346Z" fill="#8D1739"/>
</svg>
