<svg width="65" height="64" viewBox="0 0 65 64" fill="none" xmlns="http://www.w3.org/2000/svg">
<path d="M0.881592 34.6279V62.7416H16.0281V58.9858L16.0925 59.0094C20.0516 60.326 25.7136 61.4962 31.3095 63.4974L31.7255 63.6385L32.1356 63.5443C33.8942 63.1348 38.6324 61.674 44.2822 59.859C49.9318 58.0441 56.3771 55.9 61.1686 54.2458C63.4618 53.4515 64.695 50.8865 63.8522 48.6088C62.9665 46.2786 60.3976 45.2302 58.2096 45.9017C56.3873 46.4602 47.835 49.1019 42.2195 50.7592C42.2724 49.1575 42.6935 47.4257 41.3933 46.4059L41.3231 46.3353L41.2352 46.3002C34.9234 42.5347 34.3885 42.0467 25.5149 37.33L25.0989 37.1245L24.6419 37.1714C21.5903 37.4987 16.4057 38.357 16.0287 38.4195V34.6283L0.881592 34.6279ZM24.506 40.2179C32.6116 44.5351 33.5426 45.1942 39.5352 48.7671C40.5071 49.5297 40.766 50.4664 40.1797 51.3099C39.8649 51.7627 39.5353 51.9422 39.0781 52.0184C38.621 52.1005 37.9897 51.9951 37.2676 51.6783C34.5689 50.4309 33.1006 49.6356 30.1192 47.9633L28.8125 47.2311L27.3477 49.8444L28.6544 50.5766C31.655 52.2596 33.2399 53.1371 36.0312 54.4262H36.0546C37.195 54.9342 38.3986 55.1771 39.5819 54.9765C40.0731 54.8944 40.3938 54.3934 40.8416 54.1505L40.8886 54.2855L42.33 53.8748C47.9529 52.2282 57.2067 49.3638 59.0815 48.7889V48.7653C59.7902 48.5483 60.7478 48.9061 61.0327 49.6557C61.298 50.4078 60.9521 51.1357 60.1831 51.4019C55.4235 53.045 48.9914 55.1831 43.3612 56.9919C37.872 58.7552 33.2269 60.1619 31.7656 60.5193C26.1341 58.5636 20.5377 57.3304 17.0356 56.1655L16.0278 55.843V41.4524L16.2797 41.4174C16.2797 41.4174 21.4574 40.5756 24.506 40.2179Z" fill="#8D1739"/>
<path d="M44.92 0.25293C34.6802 0.25293 26.3347 8.59947 26.3347 18.8389C26.3347 29.0783 34.6808 37.3955 44.92 37.3955C55.1598 37.3955 63.4818 29.0784 63.4818 18.8389C63.4818 8.59936 55.1592 0.25293 44.92 0.25293ZM43.3966 8.80174H46.3965V11.4036H50.5039V14.4036H42.3126V17.3273H50.5039V26.2513H46.3965V28.8413H43.3966V26.2513H39.3126V23.2513H47.504V20.3276H39.3126V11.4036H43.3966V10.3195V8.80174Z" fill="#8D1739"/>
</svg>
