<svg width="127" height="127" viewBox="0 0 127 127" fill="none" xmlns="http://www.w3.org/2000/svg">
<path d="M30.2319 82.1593L36.0327 76.0573ZM22.3855 64.4924L30.8017 64.2794ZM29.3281 46.4512L35.4301 52.2519Z" fill="#006C3B"/>
<path d="M30.2319 82.1593L36.0327 76.0573M22.3855 64.4924L30.8017 64.2794M29.3281 46.4512L35.4301 52.2519" stroke="#006C3B" stroke-miterlimit="10" stroke-linecap="round"/>
<path d="M58.1442 72.0374L50.4297 72.2327C50.0613 72.242 49.6982 72.3238 49.3614 72.4734C49.0245 72.623 48.7204 72.8375 48.4664 73.1046C48.2125 73.3718 48.0136 73.6863 47.8813 74.0303C47.7489 74.3743 47.6856 74.7411 47.6949 75.1095L47.9802 86.3315C47.9993 87.0753 48.3129 87.781 48.8521 88.2936C49.3913 88.8062 50.112 89.0837 50.8558 89.0651L58.5715 88.8711C58.6637 88.8688 58.7545 88.8484 58.8388 88.811C58.9231 88.7736 58.9991 88.7199 59.0627 88.6531C59.1262 88.5863 59.1759 88.5076 59.209 88.4215C59.2421 88.3355 59.2579 88.2437 59.2555 88.1516L58.8637 72.7214C58.8614 72.6293 58.841 72.5384 58.8036 72.4542C58.7662 72.3699 58.7126 72.2938 58.6457 72.2303C58.5789 72.1668 58.5002 72.117 58.4142 72.0839C58.3281 72.0509 58.2364 72.035 58.1442 72.0374ZM57.2933 38.3713L49.5776 38.5678C48.8339 38.5869 48.1282 38.9005 47.6156 39.4397C47.103 39.9789 46.8255 40.6996 46.8441 41.4434L47.1269 52.6655C47.1361 53.0339 47.2179 53.397 47.3675 53.7339C47.5171 54.0707 47.7316 54.3748 47.9988 54.6288C48.2659 54.8827 48.5805 55.0816 48.9245 55.2139C49.2685 55.3463 49.6352 55.4096 50.0037 55.4003L57.7181 55.205C57.8103 55.2027 57.9011 55.1823 57.9854 55.1449C58.0697 55.1075 58.1458 55.0538 58.2093 54.987C58.2728 54.9202 58.3225 54.8415 58.3556 54.7554C58.3887 54.6694 58.4045 54.5776 58.4022 54.4855L58.0128 39.0553C58.0106 38.9631 57.9901 38.8723 57.9527 38.788C57.9153 38.7038 57.8617 38.6277 57.7948 38.5642C57.728 38.5006 57.6493 38.4509 57.5633 38.4178C57.4772 38.3847 57.3855 38.3689 57.2933 38.3713ZM106.327 62.4124C106.245 59.0952 105.511 55.8267 104.165 52.7936C102.819 49.7605 100.889 47.0222 98.485 44.7353C96.0807 42.4484 93.2494 40.6577 90.1528 39.4654C87.0562 38.2731 83.7551 37.7027 80.4379 37.7867L64.306 38.1938C64.2138 38.1961 64.123 38.2165 64.0387 38.2539C63.9545 38.2913 63.8784 38.345 63.8149 38.4118C63.7513 38.4786 63.7016 38.5573 63.6685 38.6434C63.6354 38.7294 63.6196 38.8212 63.622 38.9133L64.0138 54.3434C64.0161 54.4356 64.0365 54.5264 64.0739 54.6107C64.1113 54.695 64.165 54.771 64.2318 54.8346C64.2986 54.8981 64.3773 54.9478 64.4634 54.9809C64.5494 55.014 64.6411 55.0298 64.7333 55.0274L80.8576 54.6131C81.9751 54.5849 83.0869 54.7794 84.1284 55.1854C85.1698 55.5914 86.12 56.2007 86.9235 56.9778C87.727 57.7549 88.3676 58.6842 88.8082 59.7116C89.2487 60.7389 89.4802 61.8436 89.4893 62.9614C89.5292 67.5781 85.7596 71.3323 81.1448 71.4491L65.163 71.8561C65.0708 71.8583 64.98 71.8788 64.8957 71.9162C64.8115 71.9536 64.7354 72.0072 64.6719 72.074C64.6083 72.1409 64.5586 72.2196 64.5255 72.3056C64.4924 72.3917 64.4766 72.4834 64.479 72.5756L64.8683 88.0058C64.8706 88.0979 64.891 88.1888 64.9284 88.273C64.9658 88.3573 65.0195 88.4334 65.0863 88.4969C65.1531 88.5604 65.2318 88.6102 65.3179 88.6432C65.4039 88.6763 65.4957 88.6921 65.5878 88.6898L81.478 88.2876C95.4526 87.9376 106.672 76.3896 106.327 62.4124Z" fill="#006C3B"/>
</svg>
