<svg width="61" height="60" viewBox="0 0 61 60" fill="none" xmlns="http://www.w3.org/2000/svg">
<path d="M43.4033 0H18.2633C7.34325 0 0.833252 6.51 0.833252 17.43V42.54C0.833252 53.49 7.34325 60 18.2633 60H43.3733C54.2933 60 60.8033 53.49 60.8033 42.57V17.43C60.8333 6.51 54.3233 0 43.4033 0ZM22.1633 44.7C22.1633 45.54 21.5033 46.2 20.6633 46.2H12.2933C11.4533 46.2 10.7933 45.54 10.7933 44.7V30.84C10.7933 28.95 12.3233 27.42 14.2133 27.42H20.6633C21.5033 27.42 22.1633 28.08 22.1633 28.92V44.7ZM36.5033 44.7C36.5033 45.54 35.8433 46.2 35.0033 46.2H26.6333C25.7933 46.2 25.1333 45.54 25.1333 44.7V17.22C25.1333 15.33 26.6633 13.8 28.5533 13.8H33.1133C35.0033 13.8 36.5333 15.33 36.5333 17.22V44.7H36.5033ZM50.8733 44.7C50.8733 45.54 50.2133 46.2 49.3733 46.2H41.0033C40.1633 46.2 39.5033 45.54 39.5033 44.7V34.05C39.5033 33.21 40.1633 32.55 41.0033 32.55H47.4533C49.3433 32.55 50.8733 34.08 50.8733 35.97V44.7Z" fill="#8D1739"/>
</svg>
