<svg width="38" height="38" viewBox="0 0 38 38" fill="none" xmlns="http://www.w3.org/2000/svg">
<path d="M26.9167 5.5415H11.0834C6.33341 5.5415 3.16675 7.9165 3.16675 13.4582V24.5415C3.16675 30.0832 6.33341 32.4582 11.0834 32.4582H26.9167C31.6667 32.4582 34.8334 30.0832 34.8334 24.5415V13.4582C34.8334 7.9165 31.6667 5.5415 26.9167 5.5415ZM27.6609 15.184L22.7051 19.1423C21.6601 19.9815 20.3301 20.3932 19.0001 20.3932C17.6701 20.3932 16.3242 19.9815 15.2951 19.1423L10.3392 15.184C9.83258 14.7723 9.75341 14.0123 10.1492 13.5057C10.5609 12.999 11.3051 12.904 11.8117 13.3157L16.7676 17.274C17.9709 18.2398 20.0134 18.2398 21.2167 17.274L26.1726 13.3157C26.6792 12.904 27.4392 12.9832 27.8351 13.5057C28.2467 14.0123 28.1676 14.7723 27.6609 15.184Z" fill="#8D1739"/>
</svg>
