<svg width="72" height="72" viewBox="0 0 72 72" fill="none" xmlns="http://www.w3.org/2000/svg">
<path d="M55.6874 64.9372L50.4224 63.5872L48.0824 68.4697C47.2499 70.1797 44.8199 70.1797 44.0099 68.4472L39.2849 58.3222C44.7524 57.7372 49.7924 55.6897 53.9999 52.6072L58.2749 61.7872C59.0849 63.5197 57.5324 65.3872 55.6874 64.9372Z" fill="#8D1739"/>
<path d="M32.715 58.3222L27.99 68.4472C27.18 70.1797 24.75 70.1797 23.9175 68.4697L21.5775 63.5872L16.3125 64.9372C14.4675 65.3872 12.915 63.5197 13.725 61.7872L18 52.6072C22.2075 55.6897 27.2475 57.7372 32.715 58.3222Z" fill="#8D1739"/>
<path d="M36 2.25C21.7103 2.25 10.125 13.8353 10.125 28.125C10.125 42.4147 21.7103 54 36 54C50.2897 54 61.875 42.4147 61.875 28.125C61.875 13.8353 50.2897 2.25 36 2.25ZM47.6752 27.5198L43.515 31.5742L44.496 37.3005C44.82 39.1882 42.8377 40.6305 41.1413 39.7372L36 37.035L30.8587 39.7372C29.1623 40.6283 27.18 39.1882 27.504 37.3005L28.485 31.5742L24.3247 27.5198C22.9522 26.181 23.7105 23.8522 25.6072 23.5755L31.356 22.7408L33.9278 17.532C34.776 15.813 37.2263 15.813 38.0745 17.532L40.6463 22.7408L46.395 23.5755C48.2918 23.85 49.0478 26.181 47.6775 27.5198H47.6752Z" fill="#8D1739"/>
</svg>
