<svg width="26" height="38" viewBox="0 0 26 38" fill="none" xmlns="http://www.w3.org/2000/svg">
<path d="M25.1094 4.33691V4.3916C25.1094 6.41504 20.9219 8.0627 13 8.0627C4.67969 8.0627 0.890625 6.41504 0.890625 4.3916V4.29785C0.890625 3.12598 2.19531 2.19629 4.77344 1.54004C6.97656 0.977539 9.89844 0.672852 13 0.672852C16.0938 0.672852 19.0156 0.977539 21.2266 1.54004C23.8047 2.19629 25.1094 3.12598 25.1094 4.29785V4.33691ZM11.2812 4.29785C11.2812 3.96973 10.25 3.71191 8.98438 3.71191C7.71094 3.71191 6.67969 3.96973 6.67969 4.29785C6.67969 4.61816 7.71094 4.88379 8.98438 4.88379C10.25 4.88379 11.2812 4.61816 11.2812 4.29785ZM24.375 11.9455V7.24238C23.6953 7.75801 22.6641 8.19551 21.2812 8.54707C19.0547 9.11738 16.1172 9.42207 13 9.42207C9.88281 9.42207 6.94531 9.10957 4.71875 8.54707C3.33594 8.19551 2.30469 7.76582 1.625 7.24238V11.9455C1.13281 12.3596 0.890625 12.8205 0.890625 13.3283V13.4143C0.890625 15.4377 4.67969 17.0783 13 17.0783C20.9219 17.0783 25.1094 15.4377 25.1094 13.4143V13.3283C25.1094 12.8205 24.8672 12.3596 24.375 11.9455ZM24.375 22.0158V16.2736C23.6953 16.7893 22.6641 17.2268 21.2812 17.5783C19.0547 18.1408 16.1172 18.4533 13 18.4533C9.88281 18.4533 6.94531 18.1408 4.71875 17.5783C3.33594 17.2268 2.30469 16.7893 1.625 16.2736V22.0158C1.13281 22.4299 0.890625 22.8908 0.890625 23.3986V23.4689C0.890625 25.4924 4.67969 27.133 13 27.133C20.9219 27.133 25.1094 25.4924 25.1094 23.4689V23.3986C25.1094 22.883 24.8672 22.4221 24.375 22.0158ZM25.0703 33.3752C24.9844 32.9924 24.7578 32.6408 24.375 32.3205V26.3439C23.6953 26.8596 22.6641 27.2971 21.2812 27.6486C19.0547 28.2111 16.1172 28.5236 13 28.5236C9.88281 28.5236 6.94531 28.2111 4.71875 27.6486C3.33594 27.2971 2.30469 26.8596 1.625 26.3439V32.3205C1.24219 32.6408 1.01562 32.9924 0.929688 33.3752C0.90625 33.4689 0.890625 33.5705 0.890625 33.6643V33.7033C0.890625 34.1486 1.07031 34.5549 1.4375 34.9221C2.76562 36.3283 6.5 37.3283 13 37.3283C17.7031 37.3283 21.0938 36.7502 23.0703 35.8518C24.4219 35.2658 25.1094 34.5549 25.1094 33.7033V33.6643C25.1094 33.5705 25.0938 33.4689 25.0703 33.3752Z" fill="#8D1738"/>
</svg>
