<svg width="72" height="72" viewBox="0 0 72 72" fill="none" xmlns="http://www.w3.org/2000/svg">
<path d="M64.5 46.5C65.34 46.5 66 47.16 66 48V51C66 55.98 61.98 60 57 60C57 55.05 52.95 51 48 51C43.05 51 39 55.05 39 60H33C33 55.05 28.95 51 24 51C19.05 51 15 55.05 15 60C10.02 60 6 55.98 6 51V45C6 43.35 7.35 42 9 42H37.5C41.64 42 45 38.64 45 34.5V18C45 16.35 46.35 15 48 15H50.52C52.68 15 54.66 16.17 55.74 18.03L57.66 21.39C57.93 21.87 57.57 22.5 57 22.5C52.86 22.5 49.5 25.86 49.5 30V39C49.5 43.14 52.86 46.5 57 46.5H64.5Z" fill="#8D1739"/>
<path d="M24 66C27.3137 66 30 63.3137 30 60C30 56.6863 27.3137 54 24 54C20.6863 54 18 56.6863 18 60C18 63.3137 20.6863 66 24 66Z" fill="#8D1739"/>
<path d="M48 66C51.3137 66 54 63.3137 54 60C54 56.6863 51.3137 54 48 54C44.6863 54 42 56.6863 42 60C42 63.3137 44.6863 66 48 66Z" fill="#8D1739"/>
<path d="M66 37.59V42H57C55.35 42 54 40.65 54 39V30C54 28.35 55.35 27 57 27H60.87L65.22 34.62C65.73 35.52 66 36.54 66 37.59Z" fill="#8D1739"/>
<path d="M39.24 6H17.07C11.7 6 7.2 9.84 6.21 14.94H19.32C20.46 14.94 21.36 15.87 21.36 17.01C21.36 18.15 20.46 19.05 19.32 19.05H6V23.19H13.8C14.94 23.19 15.87 24.12 15.87 25.26C15.87 26.4 14.94 27.3 13.8 27.3H6V31.44H8.31C9.45 31.44 10.38 32.37 10.38 33.51C10.38 34.65 9.45 35.55 8.31 35.55H6V36.24C6 37.89 7.35 39.24 9 39.24H36.45C39.51 39.24 42 36.75 42 33.69V8.76C42 7.23 40.77 6 39.24 6Z" fill="#8D1739"/>
<path d="M6.21 14.9399H5.76H2.82C1.68 14.9399 0.75 15.8699 0.75 17.0099C0.75 18.1499 1.68 19.0499 2.82 19.0499H5.55H6V17.0699C6 16.3499 6.09 15.6299 6.21 14.9399Z" fill="#8D1739"/>
<path d="M5.55 23.1899H2.82C1.68 23.1899 0.75 24.1199 0.75 25.2599C0.75 26.3999 1.68 27.2999 2.82 27.2999H5.55H6V23.1899H5.55Z" fill="#8D1739"/>
<path d="M5.55 31.4399H2.82C1.68 31.4399 0.75 32.3699 0.75 33.5099C0.75 34.6499 1.68 35.5499 2.82 35.5499H5.55H6V31.4399H5.55Z" fill="#8D1739"/>
</svg>
