<svg width="73" height="72" viewBox="0 0 73 72" fill="none" xmlns="http://www.w3.org/2000/svg">
<path d="M36.3201 6.62998L29.0901 23.46H21.8601C20.6601 23.46 19.4901 23.55 18.3501 23.79L21.3501 16.59L21.4701 16.32L21.6501 15.84C21.7401 15.63 21.8001 15.45 21.8901 15.3C25.3701 7.22998 29.2701 4.70998 36.3201 6.62998Z" fill="#8D1739"/>
<path d="M56.6901 24.2701L56.6301 24.2401C54.8301 23.7301 53.0001 23.4601 51.1401 23.4601H32.3601L39.1101 7.77006L39.2001 7.56006C39.6201 7.71006 40.0701 7.92006 40.5201 8.07006L47.1501 10.8601C50.8401 12.3901 53.4201 13.9801 55.0101 15.9001C55.2801 16.2601 55.5201 16.5901 55.7601 16.9801C56.0301 17.4001 56.2401 17.8201 56.3601 18.2701C56.4801 18.5401 56.5701 18.7801 56.6301 19.0501C57.0801 20.5801 57.1101 22.3201 56.6901 24.2701Z" fill="#8D1739"/>
<path d="M38.0601 52.98H38.8101C39.7101 52.98 40.4601 52.17 40.4601 51.18C40.4601 49.92 40.1001 49.74 39.3201 49.44L38.0601 48.99V52.98Z" fill="#8D1739"/>
<path d="M55.37 28.56C54.02 28.17 52.61 27.96 51.14 27.96H21.86C19.82 27.96 17.9 28.35 16.1 29.13C10.88 31.38 7.21997 36.57 7.21997 42.6V48.45C7.21997 49.17 7.27997 49.86 7.36997 50.58C8.02997 60.12 13.13 65.22 22.67 65.85C23.36 65.94 24.05 66 24.8 66H48.2C59.3 66 65.15 60.72 65.72 50.22C65.75 49.65 65.78 49.05 65.78 48.45V42.6C65.78 35.97 61.37 30.39 55.37 28.56ZM40.34 46.5C41.72 46.98 43.58 48 43.58 51.18C43.58 53.91 41.45 56.1 38.81 56.1H38.06V56.76C38.06 57.63 37.37 58.32 36.5 58.32C35.63 58.32 34.94 57.63 34.94 56.76V56.1H34.67C31.79 56.1 29.42 53.67 29.42 50.67C29.42 49.8 30.11 49.11 30.98 49.11C31.85 49.11 32.54 49.8 32.54 50.67C32.54 51.93 33.5 52.98 34.67 52.98H34.94V47.91L32.66 47.1C31.28 46.62 29.42 45.6 29.42 42.42C29.42 39.69 31.55 37.5 34.19 37.5H34.94V36.84C34.94 35.97 35.63 35.28 36.5 35.28C37.37 35.28 38.06 35.97 38.06 36.84V37.5H38.33C41.21 37.5 43.58 39.93 43.58 42.93C43.58 43.8 42.89 44.49 42.02 44.49C41.15 44.49 40.46 43.8 40.46 42.93C40.46 41.67 39.5 40.62 38.33 40.62H38.06V45.69L40.34 46.5Z" fill="#8D1739"/>
<path d="M32.54 42.4201C32.54 43.6801 32.9 43.8601 33.68 44.1601L34.94 44.6101V40.6201H34.19C33.26 40.6201 32.54 41.4301 32.54 42.4201Z" fill="#8D1739"/>
</svg>
